# xmcd
#
# Track frame offsets:
#	150
#	9602
#	24809
#	41555
#	55397
#	74100
#	89453
#	102354
#	116649
#	130964
#	140828
#	155533
#	169381
#	179700
#	190767
#	205890
#	220992
#
# Disc length: 3107 seconds
# Revision: 0
# Processed by: cddbd v1.5.2PL0 Copyright (c) Steve Scherf et al.
# Submitted via: dBpowerAMP V12.0
#
DISCID=070c2111
DTITLE=Country Sisters - White Line
DYEAR=1989
DGENRE=Country
TTITLE0=Fiddle Song
TTITLE1=Bílé Linky
TTITLE2=New Orleans
TTITLE3=Pán V Baru
TTITLE4=Cimarron
TTITLE5=Cotton Fields
TTITLE6=Stop
TTITLE7=Country Lilly
TTITLE8=I Whish You
TTITLE9=Jedena Z Nás
TTITLE10=Detroit City
TTITLE11=Jdi Dál
TTITLE12=Calefornia
TTITLE13=Hej!
TTITLE14=Country roads
TTITLE15=White Line
TTITLE16=When I Die
EXTD=
EXTT0=
EXTT1=
EXTT2=
EXTT3=
EXTT4=
EXTT5=
EXTT6=
EXTT7=
EXTT8=
EXTT9=
EXTT10=
EXTT11=
EXTT12=
EXTT13=
EXTT14=
EXTT15=
EXTT16=
PLAYORDER=
